<?xml version="1.0" encoding="UTF-8"?>
<svg id="Capa_2" xmlns="http://www.w3.org/2000/svg" viewBox="0 0 42.52 28.35">
  <defs>
    <style>
      .cls-1 {
        fill: #fff;
      }
    </style>
  </defs>
  <g id="Capa_1-2" data-name="Capa_1">
    <g>
      <path class="cls-1" d="M42.52,28.35H0V0h42.52v28.35ZM12.13,12.94c-.41-.57-.78-1.09-1.15-1.6-1.49-2.08-2.97-4.15-4.45-6.23-.31-.43-.27-.55.17-.78.15-.08.3-.15.44-.22.56-.3.7-.68.47-1.26-.2-.52-.57-.67-1.15-.47-.82.29-1.66.46-2.52.36-.66-.07-1.31-.24-1.96-.4-.59-.15-1,.11-1.08.74-.08.73.23,1.15,1.04,1.24,1.45.16,2.48.95,3.3,2.17.98,1.47,1.99,2.91,3.02,4.34.69.97,1.45,1.89,2.16,2.84.83,1.1.97,2.3.44,3.59-.19.46-.36.92-.5,1.4-.44,1.44-.85,2.88-1.28,4.32-.26.86-.8,1.42-1.65,1.62-.26.06-.52.07-.79.11-.5.08-.78.5-.69,1.03.13.7.65,1.01,1.33.75.94-.36,1.89-.56,2.89-.35.5.1.99.27,1.49.41.54.15,1.01-.17,1.15-.78.11-.51-.19-.95-.71-1.06-.23-.05-.47-.08-.7-.16-.48-.16-.66-.48-.57-1,.03-.15.07-.31.11-.46,1.26-4.04,2.52-8.08,3.79-12.12.03-.08.07-.16.11-.27.48.66.95,1.29,1.4,1.92,1.05,1.46,2.09,2.93,3.13,4.4.37.52.58,1.12.22,1.69-.49.79-1.08,1.5-1.65,2.28-1.39-1.91-2.73-3.73-4.07-5.56-.13.41-.22.79-.36,1.16-.25.67-.16,1.29.25,1.86.23.31.47.62.7.93.89,1.22,1.76,2.47,2.68,3.67.55.72,1.05.7,1.62,0,.39-.48.75-.99,1.11-1.49.46-.62.91-1.25,1.38-1.9.2.27.37.51.54.73.67.9,1.32,1.83,2.02,2.71.53.67.95.66,1.5.02.36-.42.7-.87,1.02-1.32.8-1.09,1.6-2.17,2.37-3.27.65-.92.53-2.07-.25-2.83-.09.11-.17.22-.26.34-1.11,1.53-2.22,3.06-3.34,4.59-.26.36-.32.35-.58,0-.46-.63-.92-1.25-1.39-1.87-.46-.61-.46-.81-.02-1.42,1.06-1.46,2.11-2.92,3.17-4.37.54-.74,1.08-1.48,1.65-2.26.05.15.09.24.12.34.96,3.08,1.92,6.16,2.88,9.24.32,1.05.65,2.09.95,3.15.18.63-.01.94-.61,1.14-.22.07-.44.11-.66.17-.51.15-.74.51-.66,1.03.08.54.42.84.95.8.21-.02.42-.08.62-.15.89-.28,1.79-.46,2.71-.25.52.12,1.02.29,1.53.42.39.09.7-.09.93-.51.17-.31.24-.63-.02-.91-.36-.38-.75-.68-1.31-.67-.59.01-1.09-.23-1.4-.78-.16-.29-.28-.62-.38-.94-.65-2.1-1.26-4.2-1.93-6.29-.27-.84-.17-1.55.33-2.25,1.86-2.58,3.7-5.16,5.54-7.75.91-1.28,2.04-2.13,3.62-2.2.36-.02.58-.23.69-.57.13-.39.03-.76-.21-1.07-.22-.28-.51-.29-.83-.17-.82.29-1.66.47-2.52.39-.71-.07-1.42-.21-2.11-.36-.54-.11-.9.03-1.08.51-.18.48,0,.93.46,1.18.13.07.28.12.42.18.59.24.61.31.22.85-1.79,2.5-3.58,4.99-5.37,7.49-.05.07-.13.11-.2.16-.04-.06-.06-.09-.07-.12-.37-1.17-.77-2.33-1.1-3.51-.07-.25.02-.61.16-.84.41-.69.9-1.33,1.34-2,.7-1.07,1.51-1.96,2.77-2.3.47-.13.63-.6.47-1.16-.15-.5-.52-.74-.99-.58-1.56.54-3.11.52-4.68.03-.53-.17-.9.05-1.07.57-.18.53-.02.9.51,1.13.43.18.87.34,1.31.48.54.18.58.27.24.74-2.61,3.62-5.21,7.23-7.82,10.85-.06.09-.14.17-.24.27-2.79-3.89-5.56-7.75-8.35-11.65.13-.05.23-.08.32-.11.53-.18,1.05-.35,1.57-.54.34-.13.57-.37.57-.79,0-.78-.48-1.13-1.2-.94-.66.17-1.32.32-2,.39-.86.09-1.7-.13-2.52-.4-.53-.17-.85.01-1.03.55-.21.62-.04.98.62,1.25.98.4,1.78,1.02,2.37,1.93.55.85,1.12,1.69,1.66,2.54.08.13.13.36.08.5-.38,1.25-.79,2.49-1.21,3.82Z"/>
      <path d="M12.13,12.94c.43-1.33.83-2.57,1.21-3.82.04-.15,0-.37-.08-.5-.54-.86-1.11-1.69-1.66-2.54-.59-.91-1.4-1.53-2.37-1.93-.66-.27-.83-.63-.62-1.25.18-.53.51-.72,1.03-.55.82.27,1.66.49,2.52.4.67-.07,1.34-.22,2-.39.72-.18,1.19.17,1.2.94,0,.42-.22.66-.57.79-.52.19-1.05.36-1.57.54-.09.03-.19.07-.32.11,2.79,3.89,5.56,7.75,8.35,11.65.09-.1.17-.18.24-.27,2.61-3.61,5.21-7.23,7.82-10.85.34-.47.3-.56-.24-.74-.44-.15-.88-.3-1.31-.48-.53-.23-.69-.61-.51-1.13.18-.52.54-.73,1.07-.57,1.56.5,3.12.52,4.68-.03.47-.16.85.08.99.58.16.56,0,1.03-.47,1.16-1.26.34-2.07,1.23-2.77,2.3-.44.67-.92,1.31-1.34,2-.14.23-.23.59-.16.84.33,1.18.73,2.34,1.1,3.51.01.03.04.06.07.12.07-.06.16-.1.2-.16,1.79-2.49,3.58-4.99,5.37-7.49.39-.54.37-.61-.22-.85-.14-.06-.28-.11-.42-.18-.47-.25-.65-.69-.46-1.18.18-.48.55-.63,1.08-.51.7.15,1.4.29,2.11.36.86.08,1.71-.1,2.52-.39.31-.11.61-.11.83.17.24.31.34.68.21,1.07-.11.34-.34.56-.69.57-1.58.07-2.71.92-3.62,2.2-1.84,2.59-3.69,5.17-5.54,7.75-.5.7-.6,1.41-.33,2.25.67,2.09,1.28,4.19,1.93,6.29.1.32.22.64.38.94.3.55.81.79,1.4.78.56-.01.96.29,1.31.67.26.28.19.6.02.91-.23.42-.54.6-.93.51-.51-.13-1.02-.3-1.53-.42-.93-.21-1.83-.03-2.71.25-.2.06-.41.13-.62.15-.52.04-.86-.26-.95-.8-.08-.52.15-.88.66-1.03.22-.06.44-.1.66-.17.59-.19.78-.51.61-1.14-.29-1.06-.62-2.1-.95-3.15-.96-3.08-1.92-6.16-2.88-9.24-.03-.09-.07-.19-.12-.34-.57.78-1.11,1.52-1.65,2.26-1.06,1.46-2.11,2.92-3.17,4.37-.44.61-.44.81.02,1.42.47.62.93,1.25,1.39,1.87.26.35.32.36.58,0,1.11-1.53,2.22-3.06,3.34-4.59.08-.11.17-.22.26-.34.79.75.9,1.91.25,2.83-.78,1.1-1.57,2.19-2.37,3.27-.33.45-.66.9-1.02,1.32-.55.64-.97.65-1.5-.02-.7-.88-1.35-1.8-2.02-2.71-.17-.23-.34-.46-.54-.73-.47.65-.93,1.27-1.38,1.9-.37.5-.72,1.01-1.11,1.49-.57.7-1.07.72-1.62,0-.92-1.2-1.79-2.45-2.68-3.67-.23-.31-.47-.62-.7-.93-.41-.57-.5-1.18-.25-1.86.14-.36.23-.74.36-1.16,1.34,1.83,2.67,3.65,4.07,5.56.57-.78,1.16-1.5,1.65-2.28.35-.57.14-1.17-.22-1.69-1.04-1.47-2.09-2.94-3.13-4.4-.45-.63-.91-1.25-1.4-1.92-.05.12-.09.19-.11.27-1.26,4.04-2.53,8.08-3.79,12.12-.05.15-.09.3-.11.46-.09.52.09.84.57,1,.23.08.47.11.7.16.52.11.82.55.71,1.06-.13.61-.61.93-1.15.78-.5-.14-.99-.31-1.49-.41-.99-.21-1.95,0-2.89.35-.68.26-1.21-.05-1.33-.75-.1-.52.19-.95.69-1.03.26-.04.53-.05.79-.11.85-.2,1.39-.77,1.65-1.62.43-1.44.85-2.88,1.28-4.32.14-.47.31-.94.5-1.4.54-1.29.39-2.49-.44-3.59-.71-.95-1.47-1.88-2.16-2.84-1.03-1.43-2.04-2.87-3.02-4.34-.81-1.22-1.84-2.01-3.3-2.17-.81-.09-1.12-.51-1.04-1.24.07-.62.49-.88,1.08-.74.65.16,1.3.33,1.96.4.86.1,1.7-.07,2.52-.36.58-.2.94-.05,1.15.47.23.57.08.96-.47,1.26-.15.08-.3.15-.44.22-.44.24-.48.35-.17.78,1.48,2.08,2.97,4.15,4.45,6.23.37.51.74,1.02,1.15,1.6Z"/>
    </g>
  </g>
</svg>